<?xml version="1.0" encoding="iso-8859-1"?>
<!-- Generator: Adobe Illustrator 21.0.0, SVG Export Plug-In . SVG Version: 6.00 Build 0)  -->
<svg version="1.1" id="Capa_1" xmlns="http://www.w3.org/2000/svg" xmlns:xlink="http://www.w3.org/1999/xlink" x="0px" y="0px"
	 viewBox="0 0 512 512" style="enable-background:new 0 0 512 512;" xml:space="preserve">
<g>
	<g>
		<path d="M388.741,190.628H123.259c-4.134,0-7.485,3.351-7.485,7.485v137.731c0,4.134,3.352,7.485,7.485,7.485
			s7.485-3.351,7.485-7.485V205.598h250.511v194.62H130.745v-34.433c0-4.134-3.351-7.485-7.485-7.485s-7.485,3.352-7.485,7.485
			v41.918c0,4.134,3.352,7.485,7.485,7.485h265.481c4.134,0,7.485-3.351,7.485-7.485V198.113
			C396.226,193.979,392.875,190.628,388.741,190.628z"/>
	</g>
</g>
<g>
	<g>
		<path d="M471.414,71.86H424.63c-10.158,0-18.423,8.265-18.423,18.423v75.394H98.308H40.586C18.206,165.676,0,183.883,0,206.262
			v193.293c0,22.378,18.206,40.585,40.586,40.585h57.722h315.384c4.134,0,7.485-3.352,7.485-7.485v-86.331h50.237
			c22.379,0,40.586-18.206,40.586-40.586V112.445C512,90.066,493.794,71.86,471.414,71.86z M90.823,425.17H40.586
			c-14.124,0-25.615-11.491-25.615-25.615V206.262c0-14.124,11.491-25.615,25.615-25.615h50.237V425.17z M497.029,305.738
			c0,14.124-11.491,25.615-25.615,25.615h-50.237v-82.339c0-4.134-3.351-7.485-7.485-7.485s-7.485,3.351-7.485,7.485v89.825v86.331
			H105.793V180.647h300.413v38.425c0,4.134,3.352,7.485,7.485,7.485s7.485-3.351,7.485-7.485v-45.91V90.283
			c0-1.903,1.549-3.452,3.452-3.452h46.785c14.124,0,25.615,11.491,25.615,25.615V305.738z"/>
	</g>
</g>
<g>
	<g>
		<path d="M52.398,228.554c-16.234,0-29.443,13.208-29.443,29.443s13.208,29.443,29.443,29.443
			c16.234,0,29.443-13.208,29.443-29.443C81.84,241.762,68.632,228.554,52.398,228.554z M52.398,272.468
			c-7.979,0-14.472-6.492-14.472-14.472s6.492-14.472,14.472-14.472c7.979,0,14.472,6.492,14.472,14.472
			S60.377,272.468,52.398,272.468z"/>
	</g>
</g>
<g>
	<g>
		<circle cx="52.398" cy="313.827" r="11.422"/>
	</g>
</g>
<g>
	<g>
		<circle cx="52.398" cy="355.865" r="11.422"/>
	</g>
</g>
<g>
	<g>
		<circle cx="73.417" cy="334.846" r="11.422"/>
	</g>
</g>
<g>
	<g>
		<circle cx="31.383" cy="334.846" r="11.422"/>
	</g>
</g>
<g>
	<g>
		<path d="M459.602,222.066c-16.234,0-29.443,13.208-29.443,29.443c0,16.234,13.208,29.443,29.443,29.443
			c16.234,0,29.443-13.208,29.443-29.443C489.045,235.274,475.837,222.066,459.602,222.066z M459.602,265.98
			c-7.979,0-14.472-6.492-14.472-14.472c0-7.979,6.492-14.472,14.472-14.472c7.979,0,14.472,6.492,14.472,14.472
			C474.074,259.488,467.582,265.98,459.602,265.98z"/>
	</g>
</g>
<g>
	<g>
		<circle cx="459.602" cy="195.678" r="11.422"/>
	</g>
</g>
<g>
	<g>
		<circle cx="459.602" cy="153.64" r="11.422"/>
	</g>
</g>
<g>
	<g>
		<circle cx="438.583" cy="174.659" r="11.422"/>
	</g>
</g>
<g>
	<g>
		<circle cx="480.621" cy="174.659" r="11.422"/>
	</g>
</g>
<g>
</g>
<g>
</g>
<g>
</g>
<g>
</g>
<g>
</g>
<g>
</g>
<g>
</g>
<g>
</g>
<g>
</g>
<g>
</g>
<g>
</g>
<g>
</g>
<g>
</g>
<g>
</g>
<g>
</g>
</svg>
